<?xml version="1.0" encoding="UTF-8"?>
<svg version="1.1" viewBox="0 0 650 149" width="200" height="200" xmlns="http://www.w3.org/2000/svg" xmlns:cc="http://creativecommons.org/ns#" xmlns:dc="http://purl.org/dc/elements/1.1/" xmlns:rdf="http://www.w3.org/1999/02/22-rdf-syntax-ns#">
<metadata>
<rdf:RDF>
<cc:Work rdf:about="">
<dc:format>image/svg+xml</dc:format>
<dc:type rdf:resource="http://purl.org/dc/dcmitype/StillImage"/>
<dc:title/>
</cc:Work>
</rdf:RDF>
</metadata>
<g transform="matrix(1.0057 0 0 1.0057 555.52 19.976)" fill="#f28e3b" featurekey="symbol1">
<title>55</title>
<desc>MailMergeR</desc>
<g fill="none" fill-rule="evenodd">
<g fill="#f28e3b">
<path d="m33.237 47.543 43.983-33.273-33.463 39.745c-0.0087 0.01018-0.01554 0.02133-0.0238 0.03151-0.02302 0.02877-0.04466 0.05812-0.0659 0.08806-0.02066 0.02857-0.04131 0.05734-0.06039 0.08708-0.01928 0.03014-0.03698 0.06106-0.05449 0.09256-0.0177 0.03131-0.03541 0.06262-0.05134 0.09491-0.01534 0.03131-0.02931 0.06341-0.04308 0.09569-0.01456 0.03405-0.02892 0.06791-0.04151 0.10254-0.0043 0.01213-0.01023 0.02348-0.01436 0.03562l-3.8707 11.354-6.2943-18.454zm58.652-44.888c0.0079-0.028963 0.01495-0.058121 0.02125-0.087084 0.0059-0.026223 0.01102-0.052446 0.01554-0.079061 0.0057-0.031311 0.01043-0.062622 0.01456-0.094129 0.0031-0.025049 0.0059-0.050294 0.0081-0.075342 0.0028-0.03229 0.0047-0.064384 0.0059-0.096478 9.84e-4 -0.025636 0.0014-0.051076 0.0014-0.076517 0-0.031311-9.83e-4 -0.062231-0.0026-0.093346-0.0014-0.027006-3e-3 -0.054012-0.0055-0.080822-0.0028-0.029159-0.0063-0.057926-0.01023-0.086888-0.0039-0.028571-0.0081-0.057143-0.01338-0.085519-0.0051-0.027397-0.01102-0.054207-0.01731-0.081409-0.0067-0.029159-0.01318-0.057926-0.02125-0.086693-0.0075-0.027397-0.01653-0.054207-0.02518-0.081213-0.0089-0.027397-0.01751-0.05499-0.02774-0.081996-0.01141-0.030724-0.02459-0.06047-0.03757-0.090411-0.0098-0.022896-0.01869-0.045597-0.02951-0.067906-0.02026-0.042661-0.04288-0.084344-0.06649-0.12544-0.0049-0.00881-0.0089-0.017613-0.01397-0.026223l-0.0014-0.00235c-0.03029-0.051076-0.06295-0.10059-0.09777-0.14892-0.0087-0.012133-0.01849-0.023092-0.02754-0.035225-0.02597-0.034051-0.05233-0.068102-0.08066-0.10078-0.01731-0.019961-0.03561-0.03816-0.05351-0.057143-0.02164-0.022896-0.04288-0.046184-0.06551-0.068102-0.02243-0.021331-0.04584-0.041487-0.06905-0.061644-0.02007-0.017808-0.03974-0.035616-0.06059-0.052642-0.02656-0.021135-0.0539-0.0409-0.08144-0.060665-0.01928-0.014286-0.03836-0.028571-0.05823-0.041879-0.0299-0.020157-0.06059-0.038356-0.09128-0.056556-0.01495-0.008806-0.02911-0.018787-0.04426-0.027397-0.0049-0.00274-0.01003-0.004697-0.01495-0.007436-0.02951-0.016243-0.0598-0.030724-0.0901-0.045205-0.02341-0.011546-0.04662-0.023288-0.07043-0.033659-0.02597-0.01135-0.05272-0.021135-0.07908-0.031507-0.02872-0.010959-0.05725-0.022114-0.08636-0.031898-0.02341-0.007828-0.04721-0.014286-0.07102-0.021135-0.03226-0.009393-0.06433-0.018787-0.09679-0.026419-0.02321-0.005479-0.04662-0.00998-0.06984-0.014481-0.03305-0.006458-0.0659-0.012916-0.09895-0.017808-0.02498-0.003523-0.05016-0.006067-0.07515-0.009002-0.03148-0.003131-0.06275-0.006458-0.09423-0.008415-0.02734-0.00137-0.05469-0.001957-0.08223-0.002544-0.02931-3.9139e-4 -0.05862-7.8278e-4 -0.08793 0-0.02892 7.8278e-4 -0.05784 0.002544-0.08675 0.004501-0.02833 0.002153-0.05646 0.004697-0.08479 0.007632-0.02872 0.003523-0.05744 0.007436-0.08616 0.012133-0.02931 0.004501-0.05823 0.009785-0.08715 0.015851-0.02675 0.005479-0.05351 0.01135-0.08007 0.018004-0.03226 0.008219-0.06413 0.017221-0.0958 0.02681-0.02302 0.007045-0.04603 0.01409-0.06885 0.021918-0.03659 0.012524-0.07259 0.026614-0.10839 0.041292-0.01318 0.00548-0.02675 0.009589-0.03993 0.01546l-78.055 34.088c-0.68302 0.29824-1.1376 0.95519-1.174 1.6963-0.036393 0.7411 0.35154 1.4389 1.0021 1.8022l18.327 10.231 8.3581 24.505c0.08518 0.26732 0.22938 0.51977 0.432 0.73679 0.04544 0.04873 0.09344 0.09511 0.14341 0.13894 0.3722 0.32603 0.83607 0.48767 1.2991 0.48767 9e-3 0 0.0183 0 0.02754-1.96e-4 0.09915-0.0014 0.19692-0.01018 0.29272-0.02583 0.38007-0.06204 0.74498-0.23522 1.041-0.518 0.02872-0.0272 0.05646-0.05538 0.08341-0.08434l11.336-11.977 14.354 7.9959c0.29725 0.16556 0.62852 0.24932 0.96118 0.24932 0.23843 0 0.47744-0.04286 0.70525-0.13014 0.5457-0.20822 0.96984-0.64736 1.1577-1.198l22.362-65.577c0.0045-0.013503 0.0075-0.02681 0.0118-0.040117 0.0087-0.02818 0.01692-0.056164 0.02459-0.084736zm-58.26 75.029c-0.80636-0.72446-2.0502-0.66145-2.7785 0.1411l-17.159 18.905c-0.72807 0.80215-0.66452 2.0395 0.14184 2.7638 0.37633 0.33816 0.84787 0.5045 1.3178 0.5045 0.53705 0 1.0721-0.21761 1.4607-0.6454l17.159-18.905c0.72807-0.80215 0.66452-2.0395-0.14184-2.7638m-6.1629-11.367c-0.78334-0.74892-2.0286-0.72446-2.7816 0.0544l-16.134 16.695c-0.75305 0.77906-0.72846 2.0178 0.054689 2.7669 0.38164 0.36497 0.87266 0.54638 1.3633 0.54638 0.51639 0 1.032-0.20117 1.4184-0.60078l16.134-16.695c0.75305-0.77926 0.72846-2.018-0.05469-2.7671m22.075 10.566-14.348 14.925c-0.75069 0.78102-0.72295 2.0198 0.06236 2.7667 0.38105 0.36262 0.87049 0.54266 1.3591 0.54266 0.51836 0 1.0357-0.20254 1.4221-0.6045l14.348-14.925c0.75089-0.78102 0.72295-2.0198-0.06216-2.7667-0.78531-0.74697-2.0306-0.71898-2.7814 0.06184"/>
</g>
</g>
</g>
<g transform="matrix(4.8769 0 0 4.8769 -24.531 -27.089)" featurekey="text1">
<path d="m4.62 20v-2.32h1.44v-8.58h-1.44v-2.32h6.34l2.64 7.68 2.62-7.68h6.22v2.32h-1.44v8.58h1.44v2.32h-6.04v-2.32h1.34v-7.28l-3.32 9.6h-1.8l-3.3-9.54v7.22h1.34v2.32h-6.04zm22.46-6.1-3.1-0.58c-0.02-0.1-0.02-0.2-0.02-0.3 0-1.48 1.44-2.64 4.3-2.64s3.92 1.18 3.92 3.76v2.2c0 0.86 0.02 1.36 0.66 1.36 0.12 0 0.26-0.02 0.44-0.06l-0.56 2.46c-0.34 0.06-0.64 0.08-0.9 0.08-1.48 0-2.12-0.7-2.34-1.3-0.48 0.68-1.2 1.4-2.66 1.4-1.7 0-3.16-0.96-3.16-2.74 0-2.16 2.14-3.14 5.4-3.16v-0.28c0-1.06-0.26-1.44-1.02-1.44-0.64 0-0.98 0.26-0.98 0.96 0 0.08 0 0.18 0.02 0.28zm1.98 2.98v-0.74c-1.22 0.02-2.26 0.24-2.26 1.16 0 0.52 0.34 0.76 0.86 0.76 0.6 0 1.32-0.32 1.4-1.18zm5.18 3.12v-2.26h1.06v-4.82h-1.36v-2.26h4.48v7.08h1.06v2.26h-5.24zm0.54-12.6c0-1.02 0.84-1.84 1.86-1.84 1.04 0 1.86 0.82 1.86 1.84s-0.82 1.86-1.86 1.86c-1.02 0-1.86-0.84-1.86-1.86zm5.5 12.6v-2.26h1.06v-9.84h-1.26v-2.26h4.38v12.1h1.06v2.26h-5.24zm6.42 0v-2.32h1.44v-8.58h-1.44v-2.32h6.34l2.64 7.68 2.62-7.68h6.22v2.32h-1.44v8.58h1.44v2.32h-6.04v-2.32h1.34v-7.28l-3.32 9.6h-1.8l-3.3-9.54v7.22h1.34v2.32h-6.04zm25.56-2.98 2.74 0.48c-0.52 1.74-1.76 2.78-4.26 2.78-3.12 0-4.92-1.62-4.92-4.84 0-2.6 1.16-5.06 4.78-5.06 2.94 0 4.4 1.62 4.4 4.64v1.02h-5.92c0.08 1.34 0.46 1.92 1.76 1.92 0.8 0 1.28-0.22 1.42-0.94zm-3.14-2.88h2.6v-0.02c0-1.1-0.42-1.52-1.24-1.52-0.76 0-1.2 0.36-1.36 1.54zm7.14 5.86v-2.26h1.06v-4.82h-1.36v-2.26h4.26v1.7c0.44-1.06 1.22-1.98 2.48-1.98 1.4 0 1.84 0.7 1.84 0.7l-1.26 2.96s-0.3-0.66-1.22-0.66c-0.84 0-1.32 0.78-1.62 1.62v2.74h1.06v2.26h-5.24zm16.16-10.3v-1.14l2.46 0.38c0.06 0.36 0.08 0.66 0.08 0.86 0 0.82-0.34 1.52-1.42 2.04 0.38 0.5 0.6 1.16 0.6 1.92 0 2.2-1.66 3.5-4.52 3.5-0.66 0-1.24-0.06-1.76-0.2-0.2 0.16-0.32 0.34-0.32 0.52 0 0.76 1.9 0.7 3.38 0.8 2.48 0.18 3.94 0.88 3.94 2.92 0 2.78-2.68 3.54-5.1 3.54-2.68 0-4.76-0.92-4.76-2.56 0-1.02 0.76-1.64 1.62-2.16-1-0.26-1.62-0.86-1.62-1.74 0-0.76 0.48-1.38 1.34-2.04-0.74-0.58-1.12-1.44-1.12-2.5 0-2.14 1.58-3.46 4.5-3.46 0.94 0 1.74 0.14 2.4 0.42 0.22-0.28 0.3-0.5 0.3-1.1zm-3.86 10.98c-0.7 0.48-0.88 0.74-0.88 1.04 0 0.44 0.38 0.9 2.08 0.9 1.38 0 2.28-0.3 2.28-0.96 0-0.46-0.42-0.76-1.22-0.8-1.08-0.06-1.48-0.1-2.26-0.18zm1.1-5.48c0.82 0 1.24-0.5 1.24-1.4 0-0.88-0.42-1.36-1.22-1.36s-1.22 0.5-1.22 1.4c0 0.84 0.36 1.36 1.2 1.36zm12.24 1.82 2.74 0.48c-0.52 1.74-1.76 2.78-4.26 2.78-3.12 0-4.92-1.62-4.92-4.84 0-2.6 1.16-5.06 4.78-5.06 2.94 0 4.4 1.62 4.4 4.64v1.02h-5.92c0.08 1.34 0.46 1.92 1.76 1.92 0.8 0 1.28-0.22 1.42-0.94zm-3.14-2.88h2.6v-0.02c0-1.1-0.42-1.52-1.24-1.52-0.76 0-1.2 0.36-1.36 1.54zm7.18 5.86v-2.32h1.44v-8.58h-1.44v-2.32h6.62c3.66 0 4.96 1.64 4.96 3.76 0 1.98-1.12 3.04-2.34 3.62 0.52 0.28 0.9 0.8 1.24 1.74 0.28 0.78 0.4 1.5 1.7 1.5h0.16l-0.58 2.72c-0.28 0.04-0.54 0.06-0.78 0.06-2.52 0-3.16-1.82-3.66-3.16-0.58-1.82-0.78-1.98-1.9-1.98h-0.62v2.64h1.44v2.32h-6.24zm4.8-7.48h1.74c1.22 0 1.68-0.76 1.68-1.54 0-1.22-0.56-1.68-1.68-1.68h-1.74v3.22z"/>
</g>
<g transform="matrix(2.1295 0 0 2.1295 108.08 95.954)" fill="#f28e3b" featurekey="text3">
<path d="m0.26 7.54v-1.38h10v1.38h-4.22v12.46h-1.52v-12.46h-4.26zm13.429 12.46v-13.84h8.42v1.36h-6.88v4.78h5.68v1.34h-5.68v5h6.88v1.36h-8.42zm20.149 0h-7.62v-13.84h1.54v12.46h6.08v1.38zm11.049 0h-7.62v-13.84h1.54v12.46h6.08v1.38zm9.2973 0v-13.84h8.42v1.36h-6.88v4.78h5.68v1.34h-5.68v5h6.88v1.36h-8.42zm20.389-13.84h1.6l-3.62 13.84h-3.44l-3.62-13.84h1.6l3.18 12.48h1.12zm5.2487 13.84v-13.84h8.42v1.36h-6.88v4.78h5.68v1.34h-5.68v5h6.88v1.36h-8.42zm17.989-5.3h-3.92v5.3h-1.54v-13.84h5.12c2.9 0 4.42 1.28 4.42 4.2 0 2.04-0.8 3.46-2.54 4.02l2.66 5.62h-1.7zm2.5-4.34c0-1.9-0.9-2.84-2.84-2.84h-3.58v5.82h3.6c2.08 0 2.82-1.24 2.82-2.98zm10.289 3.82v5.82h-1.54v-5.82l-4.42-8.02h1.74l3.44 6.48 3.44-6.48h1.74zm12.669 4.66c3.22 0 3.88-1.8 3.88-5.7 0-3.74-0.72-5.82-3.88-5.82-3.18 0-3.88 2.06-3.88 5.82 0 3.78 0.68 5.7 3.88 5.7zm0 1.36c-4.3 0-5.46-2.42-5.46-7.06 0-4.56 1.18-7.18 5.46-7.18s5.48 2.58 5.48 7.18c0 4.76-1.18 7.06-5.48 7.06zm9.7687-0.2v-13.84h2.88l5.3 12.48h0.42v-12.48h1.52v13.84h-2.82l-5.38-12.48h-0.38v12.48h-1.54zm14.989 0v-13.84h8.42v1.36h-6.88v4.78h5.68v1.34h-5.68v5h6.88v1.36h-8.42z"/>
</g>
</svg>
